<svg xmlns="http://www.w3.org/2000/svg" viewBox="0 0 42.74 51.2"><defs><style>.cls-1{fill:#c22c1b;}</style></defs><title>Recurso 3</title><g id="Capa_2" data-name="Capa 2"><g id="Capa_1-2" data-name="Capa 1"><path class="cls-1" d="M40.78,14h.61a1.34,1.34,0,0,0,1.35-1.35V8.75a3.29,3.29,0,0,0-3.29-3.29H31.63V2.81A2.81,2.81,0,0,0,28.82,0H13.92a2.8,2.8,0,0,0-2.8,2.81V5.46H3.29A3.3,3.3,0,0,0,1,6.43,3.27,3.27,0,0,0,0,8.75v3.88A1.34,1.34,0,0,0,1.35,14H2l2.56,34.1A3.43,3.43,0,0,0,7.91,51.2H34.83a3.45,3.45,0,0,0,3.4-3.13Zm-27-11.17a.11.11,0,0,1,.11-.11h14.9a.11.11,0,0,1,.11.11V5.46H13.81V2.81ZM2.69,11.28V8.75a.59.59,0,0,1,.18-.42.61.61,0,0,1,.42-.17H39.45a.6.6,0,0,1,.6.59v2.53ZM35.54,47.85a.76.76,0,0,1-.71.65H7.91a.74.74,0,0,1-.7-.63L4.66,14H38.08Z"/><path class="cls-1" d="M29.57,42a1.4,1.4,0,0,0,1.4-1.4V21.37a1.4,1.4,0,0,0-2.79,0V40.65A1.39,1.39,0,0,0,29.57,42"/><path class="cls-1" d="M21.37,42a1.4,1.4,0,0,0,1.39-1.4V21.37a1.39,1.39,0,0,0-2.78,0V40.64A1.4,1.4,0,0,0,21.37,42"/><path class="cls-1" d="M13.17,42a1.39,1.39,0,0,0,1.39-1.39V21.36a1.4,1.4,0,0,0-2.79,0V40.65A1.4,1.4,0,0,0,13.17,42"/></g></g></svg>