<?xml version="1.0" encoding="utf-8"?>
<!-- Generator: Adobe Illustrator 23.0.4, SVG Export Plug-In . SVG Version: 6.00 Build 0)  -->
<svg version="1.1" id="icons" xmlns="http://www.w3.org/2000/svg" xmlns:xlink="http://www.w3.org/1999/xlink" x="0px" y="0px"
	 viewBox="0 0 512 512" style="enable-background:new 0 0 512 512;" xml:space="preserve">
<style type="text/css">
	.st0{fill:#B91C1C;}
</style>
<path class="st0" d="M488,32H24C10.8,32,0,42.8,0,56v416c0,4.4,3.6,8,8,8h496c4.4,0,8-3.6,8-8V56C512,42.8,501.2,32,488,32z M16,80
	h480v384H16V80z M24,48h8.2c-4.4,0-8,3.6-8,8s3.6,8,8,8s8-3.6,8-8s-3.6-8-8-8h23.9c-4.4,0-8,3.6-8,8s3.6,8,8,8s8-3.6,8-8s-3.6-8-8-8
	H80c-4.4,0-8,3.6-8,8s3.6,8,8,8s8-3.6,8-8s-3.6-8-8-8h408c4.4,0,8,3.6,8,8v8H80.3h-24h-24H16v-8C16,51.6,19.6,48,24,48z"/>
<path class="st0" d="M256,336c32.1,0,62.2-12.5,84.9-35.2S376,248,376,216s-12.5-62.2-35.2-84.8S288,96,256,96s-62.2,12.5-84.8,35.2
	S136,183.9,136,216s12.5,62.2,35.1,84.8S223.9,336,256,336L256,336z M182.5,142.4c19.6-19.6,45.8-30.5,73.5-30.5
	c27.8,0,53.9,10.8,73.5,30.5S360,188.2,360,216s-10.8,53.9-30.5,73.5C309.9,309.2,283.8,320,256,320s-53.9-10.8-73.5-30.5
	S152,243.8,152,216S162.8,162.1,182.5,142.4L182.5,142.4z"/>
<path class="st0" d="M324,408H187.9c-11,0-20,9-20,20s9,20,20,20H324c11,0,20-9,20-20S335.1,408,324,408z M187.9,432
	c-2.2,0-4-1.8-4-4s1.8-4,4-4H324c2.2,0,4,1.8,4,4s-1.8,4-4,4H187.9z"/>
<path class="st0" d="M440,352.1H71.9c-4.4,0-8,3.6-8,8s3.6,8,8,8H440c4.4,0,8-3.6,8-8S444.5,352.1,440,352.1z"/>
<path class="st0" d="M368,376.1H143.9c-4.4,0-8,3.6-8,8s3.6,8,8,8H368c4.4,0,8-3.6,8-8S372.4,376.1,368,376.1z"/>
<path class="st0" d="M210.8,261.2c1.6,1.6,3.6,2.3,5.7,2.3s4.1-0.8,5.7-2.3l33.9-33.9l33.9,33.9c1.6,1.6,3.6,2.3,5.7,2.3
	s4.1-0.8,5.7-2.3c3.1-3.1,3.1-8.2,0-11.3L267.3,216l33.9-33.9c3.1-3.1,3.1-8.2,0-11.3s-8.2-3.1-11.3,0L256,204.7l-33.9-33.9
	c-3.1-3.1-8.2-3.1-11.3,0s-3.1,8.2,0,11.3l33.9,33.9l-33.9,33.9C207.6,253,207.6,258.1,210.8,261.2z"/>
</svg>
