<?xml version="1.0" encoding="utf-8"?>
<!-- Generator: Adobe Illustrator 25.2.3, SVG Export Plug-In . SVG Version: 6.00 Build 0)  -->
<svg version="1.1" id="Capa_1" xmlns="http://www.w3.org/2000/svg" xmlns:xlink="http://www.w3.org/1999/xlink" x="0px" y="0px"
	 viewBox="0 0 404.4 302" style="enable-background:new 0 0 404.4 302;" xml:space="preserve">
<style type="text/css">
	.st0{fill:#FFFFFF;}
</style>
<g>
	<g>
		<path class="st0" d="M106.2,44.3v1.6L99,47v-1.6L106.2,44.3z"/>
		<path class="st0" d="M124,55c-0.1-0.4-0.1-1.1-0.1-2.1v-4.3c0-1.3-0.2-2.1-0.7-2.6c-0.4-0.5-1.2-0.6-2.2-0.5l-1.5,0.2v11.2
			l-4.3,0.6V30.1l6.5-0.9c2.2-0.3,3.8,0,4.9,0.8c1,0.9,1.5,2.4,1.5,4.5v2.2c0,2.8-0.9,4.8-2.8,6c1,0.3,1.7,0.9,2.2,1.8
			c0.4,0.9,0.7,2.1,0.7,3.6v4.2c0,0.8,0,1.4,0.1,1.9c0.1,0.5,0.2,0.9,0.4,1.4l-4.4,0.6C124.2,55.8,124.1,55.4,124,55z M119.6,41.8
			l1.7-0.2c0.9-0.1,1.5-0.4,1.9-0.9c0.4-0.5,0.6-1.3,0.6-2.3v-2.7c0-1-0.2-1.7-0.5-2.1c-0.4-0.4-0.9-0.5-1.7-0.4l-2.1,0.3V41.8z"/>
		<path class="st0" d="M135.4,27.2v27.4l-4.3,0.6V27.8L135.4,27.2z"/>
		<path class="st0" d="M148.4,37.5v3.9l-5.6,0.8v11.3l-4.3,0.6V26.7l11.4-1.6V29l-7.1,1v8.3L148.4,37.5z"/>
		<path class="st0" d="M161.6,50.8l-0.7-4.9l-5.3,0.8l-0.7,5.1l-4,0.6l4.4-28.1l6.3-0.9l4.4,26.8L161.6,50.8z M160.2,42.3l-2.1-13.6
			l-2.1,14.2L160.2,42.3z"/>
		<path class="st0" d="M184.2,21.8c1,1.1,1.4,2.7,1.4,4.8v2.3l-1.7,0.2v-2.4c0-1.6-0.3-2.8-1-3.6c-0.7-0.8-1.7-1.2-3.2-1
			c-1.4,0.2-2.5,0.8-3.2,1.9c-0.7,1-1,2.3-1,3.9v14.3c0,1.6,0.3,2.8,1,3.6c0.7,0.8,1.7,1.1,3.2,0.9c1.4-0.2,2.5-0.8,3.2-1.8
			c0.7-1,1-2.3,1-3.9v-3.3l1.7-0.2v3.1c0,2.1-0.5,3.8-1.4,5.2c-1,1.4-2.5,2.3-4.5,2.5c-2,0.3-3.5-0.1-4.5-1.3
			c-1-1.1-1.4-2.7-1.4-4.8v-14c0-2.1,0.5-3.8,1.4-5.2c1-1.4,2.5-2.3,4.5-2.5C181.8,20.2,183.3,20.7,184.2,21.8z"/>
		<path class="st0" d="M198.9,19.7c1,1.1,1.4,2.7,1.4,4.8v2.3l-1.7,0.2v-2.4c0-1.6-0.3-2.8-1-3.6c-0.7-0.8-1.7-1.2-3.2-1
			c-1.4,0.2-2.5,0.8-3.2,1.9c-0.7,1-1,2.3-1,3.9v14.3c0,1.6,0.3,2.8,1,3.6c0.7,0.8,1.7,1.1,3.2,0.9c1.4-0.2,2.5-0.8,3.2-1.8
			c0.7-1,1-2.3,1-3.9v-3.3l1.7-0.2v3.1c0,2.1-0.5,3.8-1.4,5.2c-1,1.4-2.5,2.3-4.5,2.5c-2,0.3-3.5-0.1-4.5-1.3
			c-1-1.1-1.4-2.7-1.4-4.8v-14c0-2.1,0.5-3.8,1.4-5.2c1-1.4,2.5-2.3,4.5-2.5C196.4,18.1,197.9,18.5,198.9,19.7z"/>
		<path class="st0" d="M212.6,30.4l-7.5,1.1v11.4l9-1.3v1.6l-10.8,1.6V17.4l10.8-1.6v1.6l-9,1.3v11l7.5-1.1V30.4z"/>
		<path class="st0" d="M226.3,28.4l-7.5,1.1v11.4l9-1.3v1.6L217,42.8V15.4l10.8-1.6v1.6l-9,1.3v11l7.5-1.1V28.4z"/>
		<path class="st0" d="M247.2,12.7c1,1.1,1.4,2.7,1.4,4.9c0,1.2-0.2,2.4-0.7,3.5c-0.4,1.1-1,2.1-1.7,3.1c-0.7,0.9-1.5,2.1-2.6,3.4
			c-1.1,1.4-2,2.5-2.7,3.5c-0.7,0.9-1.2,2-1.7,3.1c-0.5,1.1-0.7,2.3-0.7,3.6V38l9.8-1.4v1.6l-11.6,1.7v-1.3c0-1.6,0.3-3.1,0.8-4.4
			c0.5-1.4,1.1-2.6,1.9-3.6c0.7-1.1,1.7-2.3,2.9-3.7c1-1.3,1.9-2.3,2.4-3.1c0.6-0.8,1.1-1.7,1.5-2.7c0.4-1,0.6-2,0.6-3.1
			c0-3.6-1.4-5.2-4.2-4.8c-1.4,0.2-2.5,0.8-3.1,1.9c-0.7,1.1-1,2.4-1,4v1.9l-1.7,0.2v-1.8c0-2.1,0.5-3.9,1.4-5.3
			c1-1.4,2.5-2.3,4.5-2.6C244.8,11.1,246.3,11.6,247.2,12.7z"/>
		<path class="st0" d="M253,11.8c1-1.4,2.5-2.2,4.5-2.5c2-0.3,3.5,0.1,4.5,1.2c1,1.1,1.5,2.7,1.5,4.8v14c0,2.1-0.5,3.9-1.5,5.3
			c-1,1.4-2.5,2.2-4.5,2.5c-2,0.3-3.5-0.1-4.5-1.2c-1-1.1-1.5-2.7-1.5-4.8v-14C251.5,15,252,13.2,253,11.8z M254.3,34.6
			c0.7,0.8,1.8,1.2,3.2,0.9c1.4-0.2,2.5-0.8,3.2-1.9c0.7-1,1-2.4,1-3.9V15.5c0-1.6-0.3-2.8-1-3.6c-0.7-0.8-1.8-1.1-3.2-0.9
			c-1.4,0.2-2.5,0.8-3.2,1.9c-0.7,1-1,2.3-1,3.9v14.2C253.3,32.5,253.6,33.8,254.3,34.6z"/>
		<path class="st0" d="M276.9,8.4c1,1.1,1.4,2.7,1.4,4.9c0,1.2-0.2,2.4-0.7,3.5c-0.4,1.1-1,2.1-1.7,3.1c-0.7,0.9-1.5,2.1-2.6,3.4
			c-1.1,1.4-2,2.5-2.7,3.5c-0.7,0.9-1.2,2-1.7,3.1c-0.5,1.1-0.7,2.3-0.7,3.6v0.3l9.8-1.4V34l-11.6,1.7v-1.3c0-1.6,0.3-3.1,0.8-4.4
			c0.5-1.4,1.1-2.6,1.9-3.6c0.7-1.1,1.7-2.3,2.9-3.7c1-1.3,1.9-2.3,2.4-3.1c0.6-0.8,1.1-1.7,1.5-2.7c0.4-1,0.6-2,0.6-3.1
			c0-3.6-1.4-5.2-4.2-4.8c-1.4,0.2-2.5,0.8-3.1,1.9c-0.7,1.1-1,2.4-1,4v1.9l-1.7,0.2v-1.8c0-2.1,0.5-3.9,1.4-5.3
			c1-1.4,2.5-2.3,4.5-2.6C274.5,6.9,276,7.3,276.9,8.4z"/>
		<path class="st0" d="M291.6,6.3c1,1.1,1.4,2.7,1.4,4.8v0.7c0,1.4-0.3,2.6-1,3.7c-0.6,1.1-1.5,1.9-2.7,2.5c1.2,0.2,2.1,0.7,2.7,1.6
			c0.6,0.9,0.9,2,0.9,3.4v2.1c0,2.1-0.5,3.9-1.4,5.3c-1,1.4-2.5,2.2-4.5,2.5c-2,0.3-3.5-0.1-4.5-1.2c-1-1.1-1.4-2.7-1.4-4.8v-1.6
			l1.7-0.2v1.6c0,1.6,0.3,2.8,1,3.7c0.7,0.8,1.7,1.2,3.2,1c1.4-0.2,2.5-0.8,3.2-1.9c0.7-1,1-2.4,1-4.1v-2.1c0-1.4-0.3-2.5-1-3.2
			c-0.7-0.7-1.7-1-3-0.8l-1.8,0.3v-1.6l1.9-0.3c1.2-0.3,2.2-0.9,2.9-1.8c0.7-0.9,1.1-2.1,1.1-3.4v-1c0-1.7-0.3-2.9-1-3.8
			c-0.7-0.8-1.7-1.2-3.2-1c-1.4,0.2-2.5,0.8-3.2,1.8c-0.7,1-1,2.3-1,3.9v1.1l-1.7,0.2v-1c0-2.1,0.5-3.9,1.4-5.3
			c1-1.4,2.5-2.2,4.5-2.5C289.1,4.7,290.6,5.2,291.6,6.3z"/>
		<path class="st0" d="M303.2,15.8v1.6l-7.2,1v-1.6L303.2,15.8z"/>
	</g>
	<g>
		<path class="st0" d="M34.3,278.2l11-1.6v5l-11,1.6V278.2z"/>
		<path class="st0" d="M74.2,292.5l-5.6,0.8l-1-6.2l-6.8,1l-1,6.5l-5.1,0.7l5.6-35.9l8.1-1.2L74.2,292.5z M61.6,283.2l5.3-0.8
			L64.3,265L61.6,283.2z"/>
		<path class="st0" d="M81.7,266v25.4l-5,0.7V257l6.9-1l5.7,20.2v-21l4.9-0.7v35.1l-5.7,0.8L81.7,266z M89.6,248.1l2.7,1.5
			c-1,2.7-2.5,3.8-4.3,4c-2.1,0.3-3-0.8-4.5-0.6c-0.9,0.1-1.6,0.4-2.2,1.8l-2.7-1.5c1-2.7,2.5-3.8,4.3-4c2.1-0.3,3,0.8,4.5,0.6
			C88.3,249.7,89,249.4,89.6,248.1z"/>
		<path class="st0" d="M97.7,262.4c0-5.6,3-9.2,8.4-10c5.4-0.8,8.4,2,8.4,7.6v18.2c0,5.6-3,9.2-8.4,10c-5.4,0.8-8.4-2-8.4-7.6V262.4
			z M103.2,280.2c0,2.5,1.1,3.3,2.9,3c1.8-0.3,2.9-1.4,2.9-3.9v-18.9c0-2.5-1.1-3.3-2.9-3c-1.8,0.3-2.9,1.4-2.9,3.9V280.2z"/>
		<path class="st0" d="M125.4,249.6c5.4-0.8,8.1,2,8.1,7.6v1.1l-5.2,0.8v-1.5c0-2.5-1-3.3-2.8-3.1c-1.8,0.3-2.8,1.4-2.8,3.9
			c0,7.2,10.8,7,10.8,17c0,5.6-2.8,9.2-8.2,10c-5.4,0.8-8.2-2-8.2-7.6v-2.2l5.2-0.8v2.5c0,2.5,1.1,3.2,2.9,3
			c1.8-0.3,2.9-1.3,2.9-3.8c0-7.2-10.8-7-10.8-17C117.3,254,120.1,250.4,125.4,249.6z"/>
		<path class="st0" d="M160.9,253.5v4.6c0,5.6-2.7,9.1-8.2,9.9l-2.6,0.4v13.2l-5.5,0.8v-35.1l8.1-1.2
			C158.2,245.3,160.9,247.9,160.9,253.5z M150,251.5v11.9l2.6-0.4c1.8-0.3,2.7-1.2,2.7-3.7V254c0-2.5-1-3.2-2.7-2.9L150,251.5z"/>
		<path class="st0" d="M163.2,253c0-5.6,3-9.2,8.4-10c5.4-0.8,8.4,2,8.4,7.6v18.2c0,5.6-3,9.2-8.4,10c-5.4,0.8-8.4-2-8.4-7.6V253z
			 M168.7,270.8c0,2.5,1.1,3.3,2.9,3c1.8-0.3,2.9-1.4,2.9-3.9V251c0-2.5-1.1-3.3-2.9-3c-1.8,0.3-2.9,1.4-2.9,3.9V270.8z"/>
		<path class="st0" d="M195,275c-0.3-0.9-0.5-1.4-0.5-4.2v-5.5c0-3.3-1.1-4.3-3.6-3.9l-1.9,0.3v14.3l-5.5,0.8v-35.1l8.3-1.2
			c5.7-0.8,8.2,1.5,8.2,6.9v2.8c0,3.6-1.2,6.1-3.6,7.6c2.8,0.8,3.7,3.3,3.7,6.9v5.4c0,1.7,0.1,2.9,0.6,4.2L195,275z M189,245.8v10.8
			l2.2-0.3c2.1-0.3,3.3-1.4,3.3-4.2v-3.5c0-2.5-0.9-3.5-2.8-3.2L189,245.8z"/>
		<path class="st0" d="M216.9,251.6l7.6-1.1v5l-7.6,1.1v10.3l9.5-1.4v5l-15,2.2v-35.1l15-2.2v5l-9.5,1.4V251.6z"/>
		<path class="st0" d="M229.9,234.9l5.5-0.8v30.1l9.1-1.3v5l-14.6,2.1V234.9z"/>
		<path class="st0" d="M266.3,254.6l3.8-25.5l7.7-1.1v35.1l-5.2,0.8v-25.2l-3.8,25.7l-5.2,0.8l-4.1-24.2v24.8l-4.8,0.7v-35.1
			l7.7-1.1L266.3,254.6z"/>
		<path class="st0" d="M287,226.7v27.1c0,2.5,1.1,3.2,2.9,3c1.8-0.3,2.9-1.3,2.9-3.8v-27.1l5.2-0.8v26.7c0,5.6-2.8,9.2-8.2,10
			c-5.4,0.8-8.2-2-8.2-7.6v-26.7L287,226.7z"/>
		<path class="st0" d="M306.6,233.5v25.4l-5,0.7v-35.1l6.9-1l5.7,20.2v-21l4.9-0.7v35.1l-5.7,0.8L306.6,233.5z"/>
		<path class="st0" d="M323.1,221.5l8.7-1.3c5.5-0.8,8.2,1.9,8.2,7.5v17.7c0,5.6-2.7,9.1-8.2,9.9l-8.7,1.3V221.5z M328.6,225.7v25.1
			l3.1-0.4c1.8-0.3,2.8-1.3,2.8-3.8v-18.2c0-2.5-1.1-3.3-2.8-3L328.6,225.7z"/>
		<path class="st0" d="M343.1,227c0-5.6,3-9.2,8.4-10c5.4-0.8,8.4,2,8.4,7.6v18.2c0,5.6-3,9.2-8.4,10c-5.4,0.8-8.4-2-8.4-7.6V227z
			 M348.6,244.8c0,2.5,1.1,3.3,2.9,3c1.8-0.3,2.9-1.4,2.9-3.9V225c0-2.5-1.1-3.3-2.9-3c-1.8,0.3-2.9,1.4-2.9,3.9V244.8z"/>
		<path class="st0" d="M370.4,229.7l11-1.6v5l-11,1.6V229.7z"/>
	</g>
	<g>
		<g>
			<path class="st0" d="M47.5,207.7l84.8-83.2c5.2-5.3,9.2-11.7,11.5-18.6l6.6-15.5c2.7-7.8-4.5-13.9-11.9-10.1l-14.6,8.7
				c-6.5,3.3-12.3,8.1-16.9,14l-69.5,93.1l-27.9,4c-1.9,0.3-3.7,1.3-5.1,2.8l-1.2,1.4c-1.1,1.2-0.7,3,0.7,3.3l22.1,5
				c-0.2,1.7,0.3,3.3,1.6,4.4l0.9,0.7l0.9,0.7c1,0.9,2.3,1.2,3.6,1.1l7.5,19.3c0.5,1.3,2.3,1.5,3.4,0.3l1.2-1.4
				c1.3-1.5,2.1-3.5,2.1-5.4L47.5,207.7L47.5,207.7z"/>
			<path class="st0" d="M87.9,118.8l-64.6-0.8c-2.5,0-5,1.2-6.8,3.2l-2.7,3.1c-1,1.2-0.7,2.9,0.6,3.3l53.6,17.8L87.9,118.8
				L87.9,118.8z"/>
			<path class="st0" d="M128.9,208.5l-10-62.6l-23.7,23.2l25.4,49.5c0.6,1.2,2.3,1.3,3.4,0.1l2.7-3.1
				C128.5,213.6,129.3,210.9,128.9,208.5L128.9,208.5z"/>
			<polygon class="st0" points="92.5,176.2 55.6,209.1 91.7,175.3 			"/>
			<polygon class="st0" points="101.8,193.9 79.9,210.6 101,192.9 			"/>
			<polygon class="st0" points="111.2,210 103,215.4 110.5,209 			"/>
			<polygon class="st0" points="61.5,149.3 33.2,189.9 60.4,148.6 			"/>
			<polygon class="st0" points="42.6,142.6 28.3,166.1 41.6,142 			"/>
			<polygon class="st0" points="25.4,135.6 20.1,143.9 24.3,135 			"/>
		</g>
		<g>
			<path class="st0" d="M161.7,80.8c0-0.8,0.3-1.4,0.8-2c0.5-0.6,1.2-1,2-1.1l104.1-14.9c0.8-0.1,1.5,0,2.1,0.5
				c0.6,0.4,0.9,1,0.9,1.8v2.4c0,0.2-0.1,0.4-0.2,0.7l-41.9,141.6c-0.4,1.4-1.3,2.2-2.7,2.4l-37.6,5.4c-0.8,0.1-1.5,0-2-0.5
				c-0.6-0.4-0.8-1-0.8-1.8v-1.7c0-0.3,0-0.5,0.1-0.7l32.8-107.2l-54.7,7.9c-0.8,0.1-1.5,0-2-0.5c-0.6-0.4-0.8-1-0.8-1.8V80.8z"/>
			<path class="st0" d="M313.6,58.9c7.4-4.3,15.4-7,24.1-8.3c8.6-1.2,16.6-0.8,24.1,1.3c7.4,2.1,13.9,5.8,19.5,11
				c5.6,5.2,10,12.3,13.2,21.3c3.2,9,4.8,19.4,4.8,31.2c0,11.8-1.6,22.6-4.8,32.6c-3.2,9.9-7.6,18.3-13.2,25.2
				c-5.6,6.8-12.1,12.4-19.5,16.7c-7.4,4.3-15.4,7-24.1,8.3c-8.6,1.2-16.6,0.8-24.1-1.3c-7.4-2.1-13.9-5.8-19.5-11
				c-5.6-5.2-10-12.3-13.2-21.3c-3.2-9-4.8-19.4-4.8-31.2c0-11.8,1.6-22.6,4.8-32.6c3.2-9.9,7.6-18.3,13.2-25.2
				C299.6,68.8,306.2,63.2,313.6,58.9z M324.3,151.4c3.5,5.4,8,7.8,13.4,7c5.4-0.8,9.9-4.4,13.4-10.8c3.5-6.4,5.3-15,5.3-25.8
				c0-10.7-1.8-18.8-5.3-24.3c-3.5-5.4-8-7.8-13.4-7c-5.4,0.8-9.9,4.4-13.4,10.8c-3.5,6.4-5.3,15-5.3,25.8
				C319,137.9,320.7,146,324.3,151.4z"/>
		</g>
	</g>
</g>
</svg>
