<?xml version="1.0" encoding="utf-8"?>
<!-- Generator: Adobe Illustrator 23.0.4, SVG Export Plug-In . SVG Version: 6.00 Build 0)  -->
<svg version="1.1" id="icons" xmlns="http://www.w3.org/2000/svg" xmlns:xlink="http://www.w3.org/1999/xlink" x="0px" y="0px"
	 viewBox="0 0 512 512" style="enable-background:new 0 0 512 512;" xml:space="preserve">
<style type="text/css">
	.st0{fill:#0E6846;}
</style>
<path class="st0" d="M488,32H24C10.8,32,0,42.8,0,56v416c0,4.4,3.6,8,8,8h496c4.4,0,8-3.6,8-8V56C512,42.8,501.2,32,488,32z M16,80
	h480v384H16V80z M24,48h8.2c-4.4,0-8,3.6-8,8s3.6,8,8,8c4.4,0,8-3.6,8-8s-3.6-8-8-8h23.9c-4.4,0-8,3.6-8,8s3.6,8,8,8
	c4.4,0,8-3.6,8-8s-3.6-8-8-8h23.9c-4.4,0-8,3.6-8,8s3.6,8,8,8c4.4,0,8-3.6,8-8s-3.6-8-8-8H488c4.4,0,8,3.6,8,8v8H80.3h-24h-24H16v-8
	C16,51.6,19.6,48,24,48z"/>
<path class="st0" d="M256,336c66.2,0,120-53.8,120-120S322.2,96,256,96s-120,53.8-120,120S189.8,336,256,336z M256,112
	c57.3,0,104,46.7,104,104c0,57.4-46.7,104-104,104s-104-46.7-104-104C152,158.6,198.7,112,256,112z"/>
<path class="st0" d="M324,408H187.9c-11,0-20,9-20,20s9,20,20,20H324c11,0,20-9,20-20S335.1,408,324,408z M187.9,432
	c-2.2,0-4-1.8-4-4s1.8-4,4-4H324c2.2,0,4,1.8,4,4s-1.8,4-4,4H187.9z"/>
<path class="st0" d="M440,352.1H71.9c-4.4,0-8,3.6-8,8s3.6,8,8,8H440c4.4,0,8-3.6,8-8S444.5,352.1,440,352.1z"/>
<path class="st0" d="M368,376.1H143.9c-4.4,0-8,3.6-8,8s3.6,8,8,8H368c4.4,0,8-3.6,8-8S372.4,376.1,368,376.1z"/>
<path class="st0" d="M234.3,261.6c1.6,1.6,3.6,2.3,5.7,2.3s4.1-0.8,5.7-2.3l72-72c3.1-3.1,3.1-8.2,0-11.3s-8.2-3.1-11.3,0L240,244.7
	l-26.3-26.3c-3.1-3.1-8.2-3.1-11.3,0s-3.1,8.2,0,11.3L234.3,261.6z"/>
</svg>
