<?xml version="1.0" encoding="utf-8"?>
<!-- Generator: Adobe Illustrator 25.2.3, SVG Export Plug-In . SVG Version: 6.00 Build 0)  -->
<svg version="1.1" id="Capa_1" xmlns="http://www.w3.org/2000/svg" xmlns:xlink="http://www.w3.org/1999/xlink" x="0px" y="0px"
	 viewBox="0 0 155.8 104.5" style="enable-background:new 0 0 155.8 104.5;" xml:space="preserve">
<style type="text/css">
	.st0{fill:#FFFFFF;}
	.st1{fill:#491B6E;}
	.st2{fill:none;stroke:#491B6E;stroke-width:4.51;stroke-miterlimit:10;}
</style>
<g id="Capa_2_1_">
	<g id="Capa_1-2">
		<path class="st0" d="M11.6,2.5H136c5,0,9,4,9,9v73.1c0,5-4,9-9,9H11.6c-5,0-9-4-9-9V11.6C2.5,6.6,6.6,2.5,11.6,2.5z"/>
		<path class="st1" d="M136,5.1c3.6,0,6.5,2.9,6.5,6.5v73.1c0,3.6-2.9,6.5-6.5,6.5H11.6c-3.6,0-6.5-2.9-6.5-6.5V11.6
			C5.1,8,8,5.1,11.6,5.1L136,5.1 M136,0H11.6C5.2,0,0,5.2,0,11.6v73.1C0,91,5.2,96.2,11.6,96.2H136c6.4,0,11.6-5.2,11.6-11.6V11.6
			C147.6,5.2,142.4,0,136,0"/>
		<path class="st1" d="M151.5,13.4v71.3c0,8.6-7,15.5-15.5,15.6H13.4c2.9,2.8,6.8,4.3,10.8,4.3h115.7c8.8,0,15.9-7.1,15.9-15.9V24.2
			C155.8,20.2,154.3,16.3,151.5,13.4z"/>
		<path class="st0" d="M101.1,48.1c0,15.1-12.2,27.3-27.3,27.3S46.4,63.2,46.4,48.1s12.2-27.4,27.4-27.4l0,0
			C88.9,20.8,101.1,33,101.1,48.1"/>
		<circle class="st2" cx="73.8" cy="48.1" r="27.3"/>
	</g>
</g>
</svg>
