<?xml version="1.0" encoding="utf-8"?>
<!-- Generator: Adobe Illustrator 25.2.3, SVG Export Plug-In . SVG Version: 6.00 Build 0)  -->
<svg version="1.1" id="Capa_1" xmlns="http://www.w3.org/2000/svg" xmlns:xlink="http://www.w3.org/1999/xlink" x="0px" y="0px"
	 viewBox="0 0 147.5 96.2" style="enable-background:new 0 0 147.5 96.2;" xml:space="preserve">
<style type="text/css">
	.st0{fill:#FFFFFF;}
	.st1{fill:#491B6E;}
	.st2{fill:none;stroke:#491B6E;stroke-width:4.4892;stroke-miterlimit:9.9539;}
</style>
<g id="Capa_2_1_">
	<g id="Capa_1-2">
		<path class="st0" d="M11.6,2.5H136c5,0,9,4,9,9v73.1c0,5-4,9-9,9H11.6c-5,0-9-4-9-9V11.6C2.5,6.6,6.6,2.5,11.6,2.5z"/>
		<path class="st1" d="M136,5.1c3.6,0,6.5,2.9,6.5,6.5v73.1c0,3.6-2.9,6.5-6.5,6.5H11.6c-3.6,0-6.5-2.9-6.5-6.5V11.6
			C5.1,8,8,5.1,11.6,5.1L136,5.1 M136,0H11.6C5.2,0,0,5.2,0,11.6v73.1C0,91,5.2,96.2,11.6,96.2H136c6.4,0,11.6-5.2,11.6-11.6V11.6
			C147.6,5.2,142.4,0,136,0"/>
		<path class="st0" d="M17.3,84.5c-2.8,0-5.1-2.3-5.1-5.1c0,0,0,0,0,0V16.8c0-2.8,2.3-5.1,5.1-5.1h112.8c2.8,0,5.1,2.3,5.1,5.1v62.7
			c0,2.8-2.3,5.1-5.1,5.1L17.3,84.5z"/>
		<path class="st1" d="M130.2,13.8c1.7,0,3,1.3,3,3v62.7c0,1.7-1.3,3-3,3H17.3c-1.7,0-3-1.3-3-3V16.8c0-1.7,1.3-3,3-3L130.2,13.8
			 M130.2,9.5H17.3c-4,0-7.2,3.2-7.1,7.2v62.7c0,4,3.2,7.2,7.1,7.2c0,0,0,0,0,0h112.8c4,0,7.2-3.2,7.1-7.2c0,0,0,0,0,0V16.8
			C137.3,12.8,134.1,9.6,130.2,9.5"/>
		<rect x="7.9" y="27.2" class="st0" width="10.6" height="41.8"/>
		<rect x="26.3" y="7.3" class="st0" width="94.3" height="10.6"/>
		<rect x="26.3" y="77.1" class="st0" width="94.3" height="10.6"/>
		<rect x="128.4" y="27.2" class="st0" width="10.6" height="41.8"/>
		<path class="st0" d="M101.1,48.1c0,15.1-12.2,27.3-27.3,27.3S46.4,63.2,46.4,48.1s12.2-27.4,27.4-27.4l0,0
			C88.9,20.8,101.1,33,101.1,48.1"/>
		<circle class="st2" cx="73.4" cy="48.3" r="27.2"/>
		<path class="st1" d="M68.8,52.5c0.2,0.2,0.4,0.3,0.7,0.6c0.3,0.3,0.7,0.5,1,0.8c0.5,0.4,1.1,0.6,1.6,0.9c0.5,0.2,1.1,0.3,1.7,0.3
			c0.5,0,0.9-0.1,1.4-0.2c0.3-0.1,0.6-0.3,0.9-0.5c0.2-0.2,0.4-0.4,0.5-0.7c0.1-0.3,0.1-0.6,0.1-0.9c0-0.3-0.1-0.7-0.4-0.9
			c-0.3-0.3-0.6-0.5-0.9-0.7c-0.4-0.2-0.8-0.4-1.2-0.5l-1-0.4c-1.2-0.4-2.3-0.9-3.4-1.5c-0.9-0.5-1.8-1-2.5-1.8
			c-0.6-0.6-1.1-1.3-1.5-2.1c-0.3-0.8-0.5-1.7-0.5-2.6c0-0.8,0.1-1.6,0.4-2.3c0.3-0.7,0.7-1.4,1.2-1.9c0.6-0.6,1.2-1.1,1.9-1.4
			c0.8-0.4,1.7-0.7,2.5-0.8v-2.3c0-0.2,0.1-0.4,0.2-0.5c0.1-0.1,0.3-0.2,0.5-0.2h3c0.2,0,0.4,0.1,0.5,0.2c0.2,0.1,0.3,0.3,0.3,0.5
			v2.2c1.3,0.2,2.5,0.6,3.6,1.3c0.4,0.2,0.7,0.5,1,0.7s0.6,0.5,0.9,0.7c0.2,0.2,0.4,0.4,0.6,0.6c0.1,0.1,0.2,0.3,0.2,0.5
			c0,0.1,0,0.3-0.1,0.4c-0.1,0.1-0.2,0.3-0.3,0.4l-2.5,2.7c-0.1,0.2-0.3,0.3-0.6,0.3c-0.1,0-0.3,0-0.4-0.1c-0.1-0.1-0.3-0.2-0.4-0.3
			l-0.1-0.1c-0.2-0.2-0.5-0.4-0.7-0.6c-0.3-0.2-0.6-0.4-0.8-0.5c-0.3-0.2-0.7-0.3-1-0.4c-0.3-0.1-0.7-0.1-1-0.2c-0.3,0-0.7,0-1,0.1
			c-0.3,0.1-0.6,0.1-0.8,0.3c-0.2,0.1-0.4,0.3-0.6,0.5c-0.1,0.2-0.2,0.5-0.2,0.8c0,0.3,0.1,0.5,0.2,0.8c0.2,0.3,0.4,0.5,0.7,0.6
			c0.4,0.2,0.7,0.4,1.1,0.5c0.4,0.2,1,0.3,1.6,0.5c1.2,0.4,2.2,0.8,3.2,1.2c0.9,0.4,1.7,0.9,2.5,1.5c0.7,0.5,1.2,1.2,1.7,2
			c0.4,0.9,0.6,1.9,0.6,2.9c0,1.9-0.7,3.7-2,5.1c-0.7,0.7-1.4,1.2-2.3,1.7C78,59.8,77,60.1,76,60.3v2.3c0,0.5-0.3,0.7-0.8,0.7h-3
			c-0.4,0-0.7-0.2-0.7-0.5c0-0.1,0-0.1,0-0.2v-2.4c-0.9-0.2-1.7-0.5-2.5-0.8c-0.8-0.4-1.6-0.8-2.3-1.3c-0.4-0.3-0.8-0.6-1.1-0.9
			l-0.7-0.7h-0.1l0,0l0,0l0,0l0,0c-0.2-0.2-0.3-0.4-0.4-0.7c0-0.2,0.2-0.5,0.4-0.6l2.8-2.7c0.2-0.1,0.3-0.2,0.6-0.2
			c0.1,0,0.2,0,0.3,0.1c0.1,0.1,0.3,0.2,0.4,0.3"/>
	</g>
</g>
</svg>
