<?xml version="1.0" encoding="utf-8"?>
<!-- Generator: Adobe Illustrator 25.2.3, SVG Export Plug-In . SVG Version: 6.00 Build 0)  -->
<svg version="1.1" id="Capa_1" xmlns="http://www.w3.org/2000/svg" xmlns:xlink="http://www.w3.org/1999/xlink" x="0px" y="0px"
	 viewBox="0 0 147.5 96.2" style="enable-background:new 0 0 147.5 96.2;" xml:space="preserve">
<style type="text/css">
	.st0{fill:#491B6E;}
</style>
<g id="Capa_2_1_">
	<g id="Capa_1-2">
		<path class="st0" d="M136,5.1c3.6,0,6.5,2.9,6.5,6.5v73.1c0,3.6-2.9,6.5-6.5,6.5H11.6c-3.6,0-6.5-2.9-6.5-6.5V11.6
			C5.1,8,8,5.1,11.6,5.1L136,5.1 M136,0H11.6C5.2,0,0,5.2,0,11.6v73.1C0,91,5.2,96.2,11.6,96.2H136c6.4,0,11.6-5.2,11.6-11.6v0V11.6
			C147.6,5.2,142.4,0,136,0C136,0,136,0,136,0"/>
		<rect y="27" class="st0" width="147.5" height="19.4"/>
	</g>
</g>
</svg>
