<?xml version="1.0" encoding="utf-8"?>
<!-- Generator: Adobe Illustrator 25.2.3, SVG Export Plug-In . SVG Version: 6.00 Build 0)  -->
<svg version="1.1" id="Capa_1" xmlns="http://www.w3.org/2000/svg" xmlns:xlink="http://www.w3.org/1999/xlink" x="0px" y="0px"
	 viewBox="0 0 147.5 96.2" style="enable-background:new 0 0 147.5 96.2;" xml:space="preserve">
<style type="text/css">
	.st0{fill:#491B6E;}
</style>
<g id="Capa_2_1_">
	<g id="Capa_1-2">
		<path class="st0" d="M136,5.1c3.6,0,6.5,2.9,6.5,6.5v73.1c0,3.6-2.9,6.5-6.5,6.5H11.6c-3.6,0-6.5-2.9-6.5-6.5V11.6
			C5.1,8,8,5.1,11.6,5.1L136,5.1 M136,0H11.6C5.2,0,0,5.2,0,11.6v73.1C0,91,5.2,96.2,11.6,96.2H136c6.4,0,11.6-5.2,11.6-11.6V11.6
			C147.6,5.2,142.4,0,136,0"/>
		<path class="st0" d="M64.7,56c0.3,0.3,0.8,0.7,1.3,1.1c0.6,0.5,1.2,1,1.8,1.4c0.9,0.6,1.9,1.2,3,1.6c1,0.4,2,0.6,3.1,0.6
			c0.9,0,1.7-0.1,2.5-0.3c0.6-0.2,1.1-0.5,1.6-0.9c0.4-0.4,0.7-0.8,0.8-1.3c0.2-0.5,0.3-1,0.2-1.6c0-0.6-0.3-1.2-0.7-1.6
			c-0.5-0.5-1.1-0.9-1.7-1.3c-0.7-0.4-1.4-0.7-2.1-1c-0.7-0.3-1.4-0.5-1.9-0.7c-2.1-0.7-4.2-1.6-6.2-2.7c-1.6-0.8-3.1-1.9-4.4-3.2
			c-2.3-2.2-3.6-5.3-3.5-8.6c0-2.8,1-5.6,3-7.6c1-1,2.2-1.9,3.5-2.5c1.5-0.7,3-1.2,4.6-1.5v-4.1c0-0.3,0.1-0.7,0.3-0.9
			c0.3-0.3,0.6-0.4,1-0.4h5.6c0.3,0,0.7,0.1,0.9,0.4c0.3,0.2,0.5,0.6,0.5,1v4c1.1,0.2,2.2,0.5,3.2,0.8c1.1,0.4,2.1,0.8,3.2,1.4
			c0.7,0.4,1.3,0.8,1.9,1.2c0.6,0.4,1.1,0.8,1.6,1.2c0.4,0.3,0.8,0.7,1.1,1.1c0.2,0.3,0.4,0.6,0.4,0.9c0,0.2-0.1,0.5-0.2,0.7
			c-0.2,0.3-0.4,0.5-0.6,0.7L84,38.6c-0.3,0.3-0.6,0.5-1,0.5c-0.3,0-0.5-0.1-0.8-0.2c-0.3-0.2-0.5-0.4-0.8-0.6l-0.3-0.2
			c-0.4-0.3-0.8-0.7-1.3-1c-0.5-0.4-1-0.7-1.5-1c-0.6-0.3-1.1-0.5-1.8-0.7c-0.6-0.2-1.2-0.3-1.9-0.3c-0.6,0-1.2,0.1-1.8,0.2
			c-0.5,0.1-1,0.3-1.5,0.5c-0.4,0.2-0.7,0.5-1,0.9c-0.3,0.4-0.4,0.9-0.4,1.4c0,0.5,0.1,1,0.4,1.4c0.3,0.5,0.8,0.8,1.2,1.1
			c0.6,0.4,1.3,0.7,2,1c0.8,0.3,1.8,0.6,2.8,1c2.1,0.7,4,1.4,5.8,2.2c1.6,0.7,3.2,1.6,4.6,2.7c1.3,1,2.3,2.3,3,3.7
			c0.8,1.6,1.1,3.4,1.1,5.2c0,1.7-0.3,3.5-1,5.1c-0.6,1.5-1.6,2.9-2.7,4.1c-1.2,1.2-2.6,2.2-4.1,3c-1.6,0.8-3.4,1.4-5.2,1.7v4.2
			c0,0.9-0.5,1.3-1.4,1.3h-5.6c-0.6,0.1-1.2-0.3-1.3-1c0-0.1,0-0.2,0-0.3v-4.3c-1.6-0.3-3.1-0.8-4.5-1.5c-1.4-0.7-2.8-1.5-4.1-2.4
			c-0.7-0.5-1.4-1.1-2-1.7l-1.3-1.3l-0.1-0.1l0-0.1h-0.1c0,0,0-0.1-0.1-0.1l-0.1,0c-0.4-0.3-0.6-0.7-0.7-1.2
			c0.1-0.5,0.3-0.9,0.7-1.1l5.1-4.9c0.3-0.2,0.6-0.4,1-0.5c0.2,0,0.4,0.1,0.6,0.2C64.2,55.7,64.5,55.8,64.7,56"/>
	</g>
</g>
</svg>
