<?xml version="1.0" encoding="utf-8"?>
<!-- Generator: Adobe Illustrator 25.2.3, SVG Export Plug-In . SVG Version: 6.00 Build 0)  -->
<svg version="1.1" id="Capa_1" xmlns="http://www.w3.org/2000/svg" xmlns:xlink="http://www.w3.org/1999/xlink" x="0px" y="0px"
	 viewBox="0 0 155.8 104.5" style="enable-background:new 0 0 155.8 104.5;" xml:space="preserve">
<style type="text/css">
	.st0{fill:#491B6E;}
</style>
<g id="Capa_5">
	<g>
		<path class="st0" d="M124.1,68.5h-28c-1.5,0-2.7,1.2-2.7,2.7v3.3c0,3.2-2.6,5.7-5.7,5.7H68.1c-3.2,0-5.7-2.6-5.7-5.7v-3.3
			c0-1.5-1.2-2.7-2.7-2.7h-28c-1.4,0-2.6,1.1-2.6,2.6v25.5c0,2.1,1.7,3.8,3.8,3.8h89.9c2.1,0,3.8-1.7,3.8-3.8V71
			C126.6,69.6,125.5,68.5,124.1,68.5z"/>
		<path class="st0" d="M122.8,104.4H33c-4.3,0-7.8-3.5-7.8-7.9V71c0-3.7,3-6.6,6.6-6.6h27.9c3.7,0,6.7,3,6.7,6.7v3.3
			c0,0.9,0.7,1.7,1.7,1.7h19.7c0.9,0,1.7-0.7,1.7-1.7v-3.3c0-3.7,3-6.7,6.7-6.7h27.9c3.7,0,6.6,3,6.6,6.6v25.5
			C130.7,100.8,127.2,104.4,122.8,104.4z M33.2,96.3h89.3V72.5h-25v1.9c0,5.4-4.4,9.8-9.8,9.8H68.1c-5.4,0-9.8-4.4-9.8-9.8v-1.9h-25
			L33.2,96.3L33.2,96.3z"/>
	</g>
	<g>
		<path class="st0" d="M29.9,73.3c-0.8,0-1.5-0.2-2.2-0.7c-1.9-1.2-2.4-3.8-1.1-5.6l15.6-23.6c0.8-1.1,2-1.8,3.4-1.8H55
			c2.2,0,4.1,1.8,4.1,4.1c0,2.2-1.8,4.1-4.1,4.1h-7.2L33.3,71.5C32.5,72.7,31.2,73.3,29.9,73.3z"/>
	</g>
	<g>
		<path class="st0" d="M126,73.3c-1.3,0-2.6-0.6-3.4-1.8l-14.4-21.7H101c-2.2,0-4.1-1.8-4.1-4.1c0-2.2,1.8-4.1,4.1-4.1h9.4
			c1.4,0,2.6,0.7,3.4,1.8L129.4,67c1.2,1.9,0.7,4.4-1.1,5.6C127.6,73.1,126.8,73.3,126,73.3z"/>
	</g>
	<g>
		<path class="st0" d="M78,55.5c-2.2,0-4.1-1.8-4.1-4.1V4.1C73.9,1.8,75.7,0,78,0s4,1.8,4,4.1v47.4C82,53.7,80.2,55.5,78,55.5z"/>
	</g>
	<g>
		<path class="st0" d="M60.5,25.6c-1,0-2.1-0.4-2.9-1.2c-1.6-1.6-1.6-4.2,0-5.7L75.1,1.2c1.6-1.6,4.2-1.6,5.7,0l17.5,17.5
			c1.6,1.6,1.6,4.2,0,5.7c-1.6,1.6-4.2,1.6-5.7,0L77.9,9.8L63.3,24.4C62.5,25.2,61.5,25.6,60.5,25.6z"/>
	</g>
</g>
</svg>
