<?xml version="1.0" encoding="utf-8"?>
<!-- Generator: Adobe Illustrator 25.2.3, SVG Export Plug-In . SVG Version: 6.00 Build 0)  -->
<svg version="1.1" id="Capa_1" xmlns="http://www.w3.org/2000/svg" xmlns:xlink="http://www.w3.org/1999/xlink" x="0px" y="0px"
	 viewBox="0 0 147.5 96.8" style="enable-background:new 0 0 147.5 96.8;" xml:space="preserve">
<style type="text/css">
	.st0{fill:#FFFFFF;}
	.st1{fill:#491B6E;}
	.st2{fill:none;}
	.st3{fill:none;stroke:#491B6E;stroke-width:6;stroke-linecap:round;stroke-linejoin:round;}
	.st4{fill:none;stroke:#491B6E;stroke-width:6;stroke-linecap:round;stroke-linejoin:round;stroke-dasharray:25.59,12.19;}
</style>
<g id="Capa_2_1_">
	<g id="Capa_1-2">
		<path class="st0" d="M11.6,94c-5,0-9-4-9-9V70.6c11.3-1.3,19.8-10.9,19.8-22.2c0-11.4-8.6-21-19.9-22.3V11.8c0-5,4-9,9-9H136
			c5,0,9,4,9,9v14.3c-12.3,1.4-21.1,12.5-19.8,24.7c1.2,10.4,9.4,18.6,19.8,19.8v14.3c0,5-4,9-9,9L11.6,94z"/>
		<path class="st1" d="M136,5.3c3.6,0,6.5,2.9,6.5,6.5V24c-13.5,2.8-22.1,16-19.4,29.4c2,9.7,9.6,17.4,19.4,19.4v12.1
			c0,3.6-2.9,6.5-6.5,6.5H11.6c-3.6,0-6.5-2.9-6.5-6.5V72.8c11.5-2.4,19.8-12.6,19.9-24.4c0-11.8-8.3-22-19.9-24.4V11.8
			c0-3.6,2.9-6.5,6.5-6.5H136 M136,0.3H11.6C5.2,0.3,0,5.5,0,11.8v16.7c11,0,19.9,8.9,19.9,19.9c0,11-8.9,19.9-19.9,19.9v16.7
			c0,6.4,5.2,11.6,11.6,11.6H136c6.4,0,11.6-5.2,11.6-11.6V68.2c-11-0.2-19.7-9.3-19.4-20.3c0.2-10.6,8.8-19.2,19.4-19.4V11.8
			C147.6,5.5,142.4,0.3,136,0.3"/>
		<line class="st2" x1="100.2" y1="3" x2="100.2" y2="93.8"/>
		<line class="st3" x1="100.2" y1="3" x2="100.2" y2="23.4"/>
		<line class="st4" x1="100.2" y1="35.6" x2="100.2" y2="67.3"/>
		<line class="st3" x1="100.2" y1="73.4" x2="100.2" y2="93.8"/>
	</g>
</g>
</svg>
