<svg xmlns="http://www.w3.org/2000/svg" viewBox="0 0 155.82 104.5"><defs><style>.cls-1{fill:#fff;}.cls-2{fill:#137f55;}.cls-3{fill:none;stroke:#137f55;stroke-miterlimit:10;stroke-width:4.51px;}</style></defs><title>Recurso 6</title><g id="Capa_2" data-name="Capa 2"><g id="Capa_1-2" data-name="Capa 1"><rect class="cls-1" x="2.53" y="2.53" width="142.47" height="91.15" rx="9.04"/><path class="cls-2" d="M136,5.06a6.52,6.52,0,0,1,6.51,6.51V84.64A6.52,6.52,0,0,1,136,91.15H11.57a6.52,6.52,0,0,1-6.51-6.51V11.57a6.52,6.52,0,0,1,6.51-6.51H136M136,0H11.57A11.57,11.57,0,0,0,0,11.57V84.64A11.57,11.57,0,0,0,11.57,96.21H136a11.58,11.58,0,0,0,11.57-11.57V11.57A11.58,11.58,0,0,0,136,0"/><path class="cls-2" d="M151.53,13.35V84.64A15.59,15.59,0,0,1,136,100.21H13.35a15.78,15.78,0,0,0,10.83,4.29H139.93a15.89,15.89,0,0,0,15.89-15.89V24.18A15.83,15.83,0,0,0,151.53,13.35Z"/><path class="cls-1" d="M101.11,48.11A27.35,27.35,0,1,1,73.76,20.76a27.35,27.35,0,0,1,27.35,27.35"/><circle class="cls-3" cx="73.76" cy="48.11" r="27.34" transform="translate(-12.79 31.89) rotate(-22.5)"/></g></g></svg>