<svg xmlns="http://www.w3.org/2000/svg" viewBox="0 0 147.53 96.21"><defs><style>.cls-1{fill:#fff;}.cls-2{fill:#137f55;}.cls-3{fill:none;stroke:#137f55;stroke-miterlimit:10;stroke-width:4.51px;}</style></defs><title>Recurso 2</title><g id="Capa_2" data-name="Capa 2"><g id="Capa_1-2" data-name="Capa 1"><rect class="cls-1" x="2.53" y="2.53" width="142.47" height="91.15" rx="9.04"/><path class="cls-2" d="M136,5.06a6.52,6.52,0,0,1,6.51,6.51V84.64A6.52,6.52,0,0,1,136,91.15H11.57a6.52,6.52,0,0,1-6.51-6.51V11.57a6.52,6.52,0,0,1,6.51-6.51H136M136,0H11.57A11.57,11.57,0,0,0,0,11.57V84.64A11.57,11.57,0,0,0,11.57,96.21H136a11.58,11.58,0,0,0,11.57-11.57V11.57A11.58,11.58,0,0,0,136,0"/><path class="cls-1" d="M17.34,84.52a5.07,5.07,0,0,1-5.05-5.09V16.75a5.08,5.08,0,0,1,5.05-5.09H130.17a5.08,5.08,0,0,1,5.05,5.09V79.43a5.08,5.08,0,0,1-5.05,5.09Z"/><path class="cls-2" d="M130.17,13.77a3,3,0,0,1,3,3V79.43a3,3,0,0,1-3,3H17.34a3,3,0,0,1-3-3V16.75a3,3,0,0,1,3-3H130.17m0-4.22H17.34a7.18,7.18,0,0,0-7.14,7.2V79.43a7.17,7.17,0,0,0,7.14,7.2H130.17a7.17,7.17,0,0,0,7.14-7.2V16.75a7.18,7.18,0,0,0-7.14-7.2"/><rect class="cls-1" x="7.95" y="27.18" width="10.56" height="41.82"/><rect class="cls-1" x="26.29" y="7.35" width="94.31" height="10.56"/><rect class="cls-1" x="26.29" y="77.13" width="94.31" height="10.57"/><rect class="cls-1" x="128.37" y="27.18" width="10.56" height="41.82"/><path class="cls-1" d="M101.11,48.11A27.35,27.35,0,1,1,73.76,20.76a27.35,27.35,0,0,1,27.35,27.35"/><circle class="cls-3" cx="73.76" cy="48.11" r="27.34" transform="matrix(0.38, -0.92, 0.92, 0.38, 1.09, 97.84)"/><path class="cls-2" d="M68.78,52.45c.19.15.42.35.71.61a10.43,10.43,0,0,0,1,.75,7.85,7.85,0,0,0,1.64.86,4.67,4.67,0,0,0,1.71.31,4.28,4.28,0,0,0,1.39-.19,2.3,2.3,0,0,0,.88-.49,1.77,1.77,0,0,0,.47-.72,2.67,2.67,0,0,0,.14-.86,1.3,1.3,0,0,0-.38-.9,4.07,4.07,0,0,0-.94-.71,9.23,9.23,0,0,0-1.15-.53l-1-.36a25.81,25.81,0,0,1-3.41-1.47A10.56,10.56,0,0,1,67.34,47a6.42,6.42,0,0,1-1.47-2.13,6.72,6.72,0,0,1-.49-2.59A6.24,6.24,0,0,1,65.81,40,5.91,5.91,0,0,1,67,38.08a7.12,7.12,0,0,1,1.91-1.41,9.6,9.6,0,0,1,2.54-.85V33.56a.75.75,0,0,1,.18-.5.67.67,0,0,1,.54-.21h3a.88.88,0,0,1,.52.19.6.6,0,0,1,.26.52v2.18A11.44,11.44,0,0,1,79.53,37c.36.22.71.45,1,.68s.62.46.87.67a4.27,4.27,0,0,1,.6.62.9.9,0,0,1,.21.5.73.73,0,0,1-.1.39,2.44,2.44,0,0,1-.32.41l-2.49,2.65a.8.8,0,0,1-.55.28.74.74,0,0,1-.41-.13c-.13-.09-.26-.2-.42-.33l-.14-.13c-.22-.18-.46-.37-.73-.57a7.18,7.18,0,0,0-.85-.53,6.88,6.88,0,0,0-1-.39,3.5,3.5,0,0,0-1-.15,5.42,5.42,0,0,0-1,.09,2.9,2.9,0,0,0-.83.28,1.57,1.57,0,0,0-.57.51,1.4,1.4,0,0,0-.21.78,1.35,1.35,0,0,0,.23.78,2.18,2.18,0,0,0,.68.62,6.3,6.3,0,0,0,1.13.54c.45.17,1,.35,1.57.54q1.73.57,3.18,1.2a10.87,10.87,0,0,1,2.51,1.48,6.24,6.24,0,0,1,1.65,2,6.44,6.44,0,0,1,.59,2.87,7.13,7.13,0,0,1-2,5.07,8.23,8.23,0,0,1-2.27,1.65,10.52,10.52,0,0,1-2.87.94v2.32q0,.72-.78.72h-3a.64.64,0,0,1-.72-.72V60.28A11.73,11.73,0,0,1,69,59.43a14,14,0,0,1-2.28-1.34,10.05,10.05,0,0,1-1.1-.93l-.7-.73-.05,0s0,0,0,0l0,0,0,0,0,0a1.15,1.15,0,0,1-.38-.65.93.93,0,0,1,.38-.62l2.81-2.68a1.07,1.07,0,0,1,.55-.24.64.64,0,0,1,.31.09,3.45,3.45,0,0,1,.39.3"/></g></g></svg>