<svg xmlns="http://www.w3.org/2000/svg" viewBox="0 0 147.53 96.21"><defs><style>.cls-1{fill:#137f55;}</style></defs><title>Recurso 1</title><g id="Capa_2" data-name="Capa 2"><g id="Capa_1-2" data-name="Capa 1"><path class="cls-1" d="M136,5.06a6.52,6.52,0,0,1,6.51,6.51V84.64A6.52,6.52,0,0,1,136,91.15H11.57a6.52,6.52,0,0,1-6.51-6.51V11.57a6.52,6.52,0,0,1,6.51-6.51H136M136,0H11.57A11.57,11.57,0,0,0,0,11.57V84.64A11.57,11.57,0,0,0,11.57,96.21H136a11.57,11.57,0,0,0,11.57-11.57V11.57A11.57,11.57,0,0,0,136,0"/><rect class="cls-1" y="26.96" width="147.53" height="19.41"/></g></g></svg>