<svg xmlns="http://www.w3.org/2000/svg" viewBox="0 0 147.52 96.21"><defs><style>.cls-1{fill:#137f55;}</style></defs><title>Recurso 3</title><g id="Capa_2" data-name="Capa 2"><g id="Capa_1-2" data-name="Capa 1"><path class="cls-1" d="M136,5.06a6.52,6.52,0,0,1,6.51,6.51V84.64A6.52,6.52,0,0,1,136,91.15H11.57a6.52,6.52,0,0,1-6.51-6.51V11.57a6.52,6.52,0,0,1,6.51-6.51H136M136,0H11.57A11.57,11.57,0,0,0,0,11.57V84.64A11.57,11.57,0,0,0,11.57,96.21H136a11.57,11.57,0,0,0,11.56-11.57V11.57A11.57,11.57,0,0,0,136,0"/><path class="cls-1" d="M64.71,56c.34.28.76.65,1.29,1.11a16.91,16.91,0,0,0,1.78,1.37,15.39,15.39,0,0,0,3,1.57,8.69,8.69,0,0,0,3.1.56,8.25,8.25,0,0,0,2.52-.34,4.41,4.41,0,0,0,1.61-.9,3.31,3.31,0,0,0,.84-1.3,4.78,4.78,0,0,0,.25-1.57,2.33,2.33,0,0,0-.69-1.64,7.08,7.08,0,0,0-1.7-1.28,15.36,15.36,0,0,0-2.1-1c-.72-.27-1.36-.49-1.89-.66a43,43,0,0,1-6.2-2.68,19,19,0,0,1-4.43-3.19,11.41,11.41,0,0,1-3.54-8.58,10.89,10.89,0,0,1,3-7.62A12.69,12.69,0,0,1,65,27.33a17.68,17.68,0,0,1,4.62-1.55v-4.1a1.37,1.37,0,0,1,.33-.92,1.19,1.19,0,0,1,1-.38h5.55a1.54,1.54,0,0,1,.93.35,1.11,1.11,0,0,1,.49.95v3.95a22.21,22.21,0,0,1,3.23.84,19.9,19.9,0,0,1,3.15,1.41c.67.39,1.31.8,1.9,1.22a19.75,19.75,0,0,1,1.59,1.23,6.84,6.84,0,0,1,1.07,1.12,1.59,1.59,0,0,1,.4.92,1.32,1.32,0,0,1-.19.7,4.1,4.1,0,0,1-.58.74l-4.51,4.82a1.47,1.47,0,0,1-1,.5,1.26,1.26,0,0,1-.75-.24,7.93,7.93,0,0,1-.75-.59l-.27-.24c-.4-.33-.83-.67-1.32-1a13.3,13.3,0,0,0-1.54-1,11.65,11.65,0,0,0-1.75-.71,6.55,6.55,0,0,0-1.86-.28,9.64,9.64,0,0,0-1.83.17,5.16,5.16,0,0,0-1.51.51,3,3,0,0,0-1,.93,2.53,2.53,0,0,0-.38,1.4,2.46,2.46,0,0,0,.41,1.44,4.28,4.28,0,0,0,1.24,1.12,11.6,11.6,0,0,0,2,1q1.23.47,2.85,1c2.09.69,4,1.42,5.78,2.17a19.67,19.67,0,0,1,4.56,2.69,11.08,11.08,0,0,1,3,3.71,11.54,11.54,0,0,1,1.08,5.22,13,13,0,0,1-1,5.1,13.37,13.37,0,0,1-2.72,4.12,15.12,15.12,0,0,1-4.12,3,18.85,18.85,0,0,1-5.21,1.69v4.23c0,.86-.47,1.3-1.42,1.3H70.88a1.15,1.15,0,0,1-1.3-1.3V70.22a20.59,20.59,0,0,1-4.52-1.53,26.42,26.42,0,0,1-4.13-2.45,14.72,14.72,0,0,1-2-1.69l-1.29-1.32-.09-.09-.05-.08-.06,0a.14.14,0,0,0-.06-.07l-.06-.05a2,2,0,0,1-.68-1.18,1.65,1.65,0,0,1,.68-1.12l5.11-4.87a1.87,1.87,0,0,1,1-.45,1.05,1.05,0,0,1,.56.18,4.77,4.77,0,0,1,.71.53"/></g></g></svg>