<?xml version="1.0" encoding="utf-8"?>
<!-- Generator: Adobe Illustrator 23.0.4, SVG Export Plug-In . SVG Version: 6.00 Build 0)  -->
<svg version="1.1" id="Capa_1" xmlns="http://www.w3.org/2000/svg" xmlns:xlink="http://www.w3.org/1999/xlink" x="0px" y="0px"
	 viewBox="0 0 155.8 104.5" style="enable-background:new 0 0 155.8 104.5;" xml:space="preserve">
<style type="text/css">
	.st0{fill:#FFFFFF;}
	.st1{fill:#137F55;}
</style>
<g>
	<g>
		<rect x="10.1" y="37.2" class="st0" width="103.1" height="62.7"/>
		<path class="st0" d="M113.2,108H10.1c-4.5,0-8.2-3.7-8.2-8.2V37.2c0-4.5,3.7-8.2,8.2-8.2h103.1c4.5,0,8.2,3.7,8.2,8.2v62.7
			C121.4,104.4,117.7,108,113.2,108z M18.2,91.7H105V45.4H18.2V91.7z"/>
	</g>
	<g>
		<path class="st1" d="M113.2,104H10.1c-2.3,0-4.1-1.8-4.1-4.1V37.2c0-2.3,1.8-4.1,4.1-4.1h103.1c2.3,0,4.1,1.8,4.1,4.1v62.7
			C117.3,102.1,115.4,104,113.2,104z M14.1,95.8h95V41.3h-95V95.8z"/>
	</g>
	<g>
		<rect x="25.5" y="21.7" class="st0" width="103.1" height="62.7"/>
		<path class="st0" d="M128.7,92.5H25.5c-4.5,0-8.2-3.7-8.2-8.2V21.7c0-4.5,3.7-8.2,8.2-8.2h103.1c4.5,0,8.2,3.7,8.2,8.2v62.7
			C136.8,88.9,133.2,92.5,128.7,92.5z M33.7,76.2h86.8V29.9H33.7V76.2z"/>
	</g>
	<g>
		<path class="st1" d="M128.7,88.5H25.5c-2.3,0-4.1-1.8-4.1-4.1V21.7c0-2.3,1.8-4.1,4.1-4.1h103.1c2.3,0,4.1,1.8,4.1,4.1v62.7
			C132.8,86.6,130.9,88.5,128.7,88.5z M29.6,80.3h95V25.8h-95V80.3z"/>
	</g>
	<g>
		<rect x="42.6" y="4.6" class="st0" width="103.1" height="62.7"/>
		<path class="st0" d="M145.7,75.5H42.6c-4.5,0-8.2-3.7-8.2-8.2V4.6c0-4.5,3.7-8.2,8.2-8.2h103.1c4.5,0,8.2,3.7,8.2,8.2v62.7
			C153.9,71.8,150.3,75.5,145.7,75.5z M50.8,59.1h86.8V12.8H50.8V59.1z"/>
	</g>
	<g>
		<path class="st1" d="M145.7,71.4H42.6c-2.3,0-4.1-1.8-4.1-4.1V4.6c0-2.3,1.8-4.1,4.1-4.1h103.1c2.3,0,4.1,1.8,4.1,4.1v62.7
			C149.8,69.6,148,71.4,145.7,71.4z M46.7,63.2h95V8.7h-95V63.2z"/>
	</g>
	<g>
		<path class="st1" d="M94.2,56.6h14.3c1.5,0,3-1.2,3-3c0-3.5,0-8.4-0.3-9.7c-0.8-4.5-8.2-6.9-12.6-8.7v-1.5c1-1,1.5-2.2,1.5-2.2
			c0.5-0.5,0.8-2,1-3.2l0,0c1.5,0.8,3-6.4,0.8-4.7c1-4-0.9-10.1-7.6-10.1c-6.7,0-8.6,6.1-7.6,10.1c-2.2-1.7-0.8,5.4,0.8,4.7l0,0
			c0.3,1.2,0.5,2.7,1,3.2c0,0,0.5,1.2,1.5,2.2v1.5C85.4,37,77.9,39.5,77.2,44c-0.3,1.2-0.3,6.2-0.3,9.7c0,1.7,1.5,3,3,3
			C79.9,56.6,94.2,56.6,94.2,56.6z"/>
	</g>
</g>
</svg>
