<?xml version="1.0" encoding="utf-8"?>
<!-- Generator: Adobe Illustrator 23.0.4, SVG Export Plug-In . SVG Version: 6.00 Build 0)  -->
<svg version="1.1" id="Capa_1" xmlns="http://www.w3.org/2000/svg" xmlns:xlink="http://www.w3.org/1999/xlink" x="0px" y="0px"
	 viewBox="0 0 155.8 104.5" style="enable-background:new 0 0 155.8 104.5;" xml:space="preserve">
<style type="text/css">
	.st0{fill:#137F55;}
	.st1{fill:#FFFFFF;}
</style>
<title>Recurso 6</title>
<g>
	<g>
		<g>
			<circle class="st0" cx="77.9" cy="52.2" r="52.2"/>
		</g>
		<g>
			<g>
				<path class="st1" d="M108.6,67.2H75.5c-2.3,0-4.1-1.8-4.1-4.1c0-2.3,1.8-4.1,4.1-4.1h33.1c2.3,0,4.1,1.8,4.1,4.1
					C112.8,65.4,110.9,67.2,108.6,67.2z"/>
			</g>
			<g>
				<path class="st1" d="M96.4,79.4c-1.1,0-2.1-0.4-2.9-1.2c-1.6-1.6-1.6-4.2,0-5.8l9.3-9.3l-9.3-9.3c-1.6-1.6-1.6-4.2,0-5.8
					c1.6-1.6,4.2-1.6,5.8,0l12.2,12.2c0.8,0.8,1.2,1.8,1.2,2.9s-0.4,2.1-1.2,2.9L99.3,78.2C98.5,79,97.5,79.4,96.4,79.4z"/>
			</g>
			<g>
				<path class="st1" d="M80.3,45.5H47.2c-2.3,0-4.1-1.8-4.1-4.1s1.8-4.1,4.1-4.1h33.1c2.3,0,4.1,1.8,4.1,4.1S82.6,45.5,80.3,45.5z"
					/>
			</g>
			<g>
				<path class="st1" d="M59.4,57.8c-1.1,0-2.1-0.4-2.9-1.2L44.3,44.3c-0.8-0.8-1.2-1.8-1.2-2.9s0.4-2.1,1.2-2.9l12.2-12.2
					c1.6-1.6,4.2-1.6,5.8,0c1.6,1.6,1.6,4.2,0,5.8L53,41.4l9.3,9.3c1.6,1.6,1.6,4.2,0,5.8C61.5,57.4,60.5,57.8,59.4,57.8z"/>
			</g>
		</g>
	</g>
</g>
</svg>
