<?xml version="1.0" encoding="utf-8"?>
<!-- Generator: Adobe Illustrator 23.0.4, SVG Export Plug-In . SVG Version: 6.00 Build 0)  -->
<svg version="1.1" id="Capa_1" xmlns="http://www.w3.org/2000/svg" xmlns:xlink="http://www.w3.org/1999/xlink" x="0px" y="0px"
	 viewBox="0 0 155.8 104.5" style="enable-background:new 0 0 155.8 104.5;" xml:space="preserve">
<style type="text/css">
	.st0{fill:#137F55;}
	.st1{fill:none;}
</style>
<title>Recurso 6</title>
<g id="Capa_4">
	<g>
		<g>
			<path class="st0" d="M115.3,13.4v78.2c0,1.2,1,2.2,2.2,2.2h15.9c1.8,0,3.2-1.4,3.2-3.2V14.4c0-1.8-1.4-3.2-3.2-3.2h-15.9
				C116.3,11.3,115.3,12.2,115.3,13.4z"/>
			<path class="st0" d="M133.4,99.4h-15.9c-4.3,0-7.8-3.5-7.8-7.8V13.4c0-4.3,3.5-7.8,7.8-7.8h15.9c4.9,0,8.8,4,8.8,8.8v76.1
				C142.3,95.4,138.2,99.4,133.4,99.4z M121,88h9.9V16.9H121V88z M133.4,16.9L133.4,16.9L133.4,16.9z"/>
		</g>
		<g>
			<path class="st0" d="M85.3,58.2H19.2c-3.2,0-5.7-2.5-5.7-5.7s2.5-5.7,5.7-5.7h66c3.2,0,5.7,2.5,5.7,5.7S88.4,58.2,85.3,58.2z"/>
		</g>
		<g>
			<path class="st0" d="M60.9,82.5c-1.4,0-2.9-0.5-4-1.6c-2.3-2.3-2.3-5.8,0-8l20.4-20.4L56.9,32.1c-2.3-2.3-2.3-5.8,0-8
				c2.3-2.2,5.8-2.2,8,0l24.4,24.4c2.3,2.3,2.3,5.8,0,8L65,80.9C63.8,82,62.4,82.5,60.9,82.5z"/>
		</g>
		<g>
			<line class="st1" x1="117.5" y1="93.7" x2="94.8" y2="93.7"/>
			<path class="st0" d="M117.5,99.4H94.8c-3.2,0-5.7-2.5-5.7-5.7c0-3.2,2.5-5.7,5.7-5.7h22.7c3.2,0,5.7,2.5,5.7,5.7
				C123.2,96.9,120.6,99.4,117.5,99.4z"/>
		</g>
		<g>
			<line class="st1" x1="117.5" y1="11.3" x2="94.8" y2="11.3"/>
			<path class="st0" d="M117.5,16.9H94.8c-3.2,0-5.7-2.5-5.7-5.7s2.5-5.7,5.7-5.7h22.7c3.2,0,5.7,2.5,5.7,5.7S120.6,16.9,117.5,16.9
				z"/>
		</g>
	</g>
</g>
</svg>
