<?xml version="1.0" encoding="utf-8"?>
<!-- Generator: Adobe Illustrator 23.0.4, SVG Export Plug-In . SVG Version: 6.00 Build 0)  -->
<svg version="1.1" id="Capa_1" xmlns="http://www.w3.org/2000/svg" xmlns:xlink="http://www.w3.org/1999/xlink" x="0px" y="0px"
	 viewBox="0 0 155.8 104.5" style="enable-background:new 0 0 155.8 104.5;" xml:space="preserve">
<style type="text/css">
	.st0{fill:#137F55;}
</style>
<g id="Capa_6">
	<g>
		<g>
			<path class="st0" d="M121.4,70.6H95.1c-1.4,0-2.5,1.1-2.5,2.5v3.1c0,3-2.4,5.4-5.4,5.4H68.6c-3,0-5.4-2.4-5.4-5.4v-3.1
				c0-1.4-1.1-2.5-2.5-2.5H34.4c-1.3,0-2.4,1.1-2.4,2.4v24c0,2,1.6,3.6,3.6,3.6h84.7c2,0,3.6-1.6,3.6-3.6v-24
				C123.8,71.7,122.8,70.6,121.4,70.6z"/>
			<path class="st0" d="M120.3,104.5H35.5c-4.1,0-7.4-3.3-7.4-7.4v-24c0-3.4,2.8-6.2,6.2-6.2h26.3c3.5,0,6.3,2.8,6.3,6.3v3.1
				c0,0.9,0.7,1.6,1.6,1.6h18.5c0.9,0,1.6-0.7,1.6-1.6v-3.1c0-3.5,2.8-6.3,6.3-6.3h26.3c3.4,0,6.2,2.8,6.2,6.2v24
				C127.7,101.2,124.3,104.5,120.3,104.5z M35.8,96.8H120V74.5H96.4v1.8c0,5.1-4.1,9.2-9.2,9.2H68.6c-5.1,0-9.2-4.1-9.2-9.2v-1.8
				H35.8V96.8z"/>
		</g>
		<g>
			<path class="st0" d="M32.6,75.2c-0.7,0-1.5-0.2-2.1-0.6c-1.8-1.2-2.2-3.5-1.1-5.3l14.7-22.2c0.7-1.1,1.9-1.7,3.2-1.7h8.9
				c2.1,0,3.8,1.7,3.8,3.8c0,2.1-1.7,3.8-3.8,3.8h-6.8L35.8,73.5C35.1,74.6,33.9,75.2,32.6,75.2z"/>
		</g>
		<g>
			<path class="st0" d="M123.3,75.2c-1.2,0-2.5-0.6-3.2-1.7L106.5,53h-6.8c-2.1,0-3.8-1.7-3.8-3.8c0-2.1,1.7-3.8,3.8-3.8h8.9
				c1.3,0,2.5,0.6,3.2,1.7l14.7,22.2c1.2,1.8,0.7,4.1-1.1,5.3C124.7,75,124,75.2,123.3,75.2z"/>
		</g>
		<g>
			<path class="st0" d="M77.9,52.3c-2.1,0-3.8-1.7-3.8-3.8V3.8c0-2.1,1.7-3.8,3.8-3.8c2.1,0,3.8,1.7,3.8,3.8v44.6
				C81.7,50.6,80,52.3,77.9,52.3z"/>
		</g>
		<g>
			<path class="st0" d="M77.9,52.3c-1,0-2-0.4-2.7-1.1L58.8,34.7c-1.5-1.5-1.5-3.9,0-5.4c1.5-1.5,3.9-1.5,5.4,0l13.8,13.8l13.8-13.8
				c1.5-1.5,3.9-1.5,5.4,0c1.5,1.5,1.5,3.9,0,5.4L80.6,51.2C79.9,51.9,78.9,52.3,77.9,52.3z"/>
		</g>
	</g>
</g>
</svg>
