<?xml version="1.0" encoding="utf-8"?>
<!-- Generator: Adobe Illustrator 23.0.4, SVG Export Plug-In . SVG Version: 6.00 Build 0)  -->
<svg version="1.1" id="Capa_1" xmlns="http://www.w3.org/2000/svg" xmlns:xlink="http://www.w3.org/1999/xlink" x="0px" y="0px"
	 viewBox="0 0 155.8 104.5" style="enable-background:new 0 0 155.8 104.5;" xml:space="preserve">
<style type="text/css">
	.st0{fill:#137F55;}
	.st1{fill:none;}
</style>
<g id="Capa_3">
	<g>
		<path class="st0" d="M40.5,91.3V13.2c0-1.2-1-2.2-2.2-2.2H22.4c-1.8,0-3.2,1.4-3.2,3.2v76c0,1.8,1.4,3.2,3.2,3.2h15.9
			C39.5,93.5,40.5,92.5,40.5,91.3z"/>
		<path class="st0" d="M38.3,99.1H22.4c-4.9,0-8.9-3.9-8.9-8.9v-76c0-4.9,3.9-8.9,8.9-8.9h15.9c4.3,0,7.8,3.5,7.8,7.8v78.2
			C46.1,95.6,42.6,99.1,38.3,99.1z M24.9,87.8h10V16.7h-10V87.8z"/>
	</g>
	<g>
		<path class="st0" d="M136.6,57.9H70.5c-3.1,0-5.7-2.5-5.7-5.7c0-3.1,2.5-5.7,5.7-5.7h66.1c3.1,0,5.7,2.5,5.7,5.7
			C142.3,55.4,139.7,57.9,136.6,57.9z"/>
	</g>
	<g>
		<path class="st0" d="M112.2,82.3c-1.4,0-2.9-0.5-4-1.6c-2.2-2.2-2.2-5.8,0-8l20.4-20.4l-20.4-20.4c-2.2-2.2-2.2-5.8,0-8
			c2.2-2.2,5.8-2.2,8,0l24.4,24.4c2.2,2.2,2.2,5.8,0,8l-24.3,24.3C115.1,81.7,113.7,82.3,112.2,82.3z"/>
	</g>
	<g>
		<line class="st1" x1="38.3" y1="11" x2="61" y2="11"/>
		<path class="st0" d="M61,16.7H38.3c-3.1,0-5.7-2.5-5.7-5.7s2.5-5.7,5.7-5.7H61c3.1,0,5.7,2.5,5.7,5.7S64.2,16.7,61,16.7z"/>
	</g>
	<g>
		<line class="st1" x1="38.3" y1="93.5" x2="61" y2="93.5"/>
		<path class="st0" d="M61,99.1H38.3c-3.1,0-5.7-2.5-5.7-5.7c0-3.1,2.5-5.7,5.7-5.7H61c3.1,0,5.7,2.5,5.7,5.7
			C66.7,96.6,64.2,99.1,61,99.1z"/>
	</g>
</g>
<title>Recurso 6</title>
</svg>
