<svg xmlns="http://www.w3.org/2000/svg" viewBox="0 0 147.52 96.76"><defs><style>.cls-1{fill:#fff;}.cls-2{fill:#137f55;}.cls-3,.cls-4{fill:none;stroke:#137f55;stroke-linecap:round;stroke-linejoin:round;stroke-width:6px;}.cls-4{stroke-dasharray:25.59 12.19;}</style></defs><title>Recurso 5</title><g id="Capa_2" data-name="Capa 2"><g id="Capa_1-2" data-name="Capa 1"><path class="cls-1" d="M11.57,94a9,9,0,0,1-9-9V70.63A22.42,22.42,0,0,0,22.39,48.38,22.42,22.42,0,0,0,2.53,26.13V11.84a9.06,9.06,0,0,1,9-9H136a9.06,9.06,0,0,1,9,9V26.13a22.39,22.39,0,0,0,0,44.5V84.91a9,9,0,0,1-9,9Z"/><path class="cls-2" d="M136,5.33a6.52,6.52,0,0,1,6.51,6.51V24a24.92,24.92,0,0,0,0,48.81V84.91A6.52,6.52,0,0,1,136,91.42H11.57a6.52,6.52,0,0,1-6.51-6.51V72.78a25,25,0,0,0,19.86-24.4A25,25,0,0,0,5.06,24V11.84a6.52,6.52,0,0,1,6.51-6.51H136m0-5.06H11.57A11.57,11.57,0,0,0,0,11.84V28.51A19.87,19.87,0,0,1,19.86,48.38,19.86,19.86,0,0,1,0,68.24V84.91A11.57,11.57,0,0,0,11.57,96.48H136a11.57,11.57,0,0,0,11.56-11.57V68.24a19.87,19.87,0,0,1,0-39.73V11.84A11.57,11.57,0,0,0,136,.27"/><line class="cls-1" x1="100.19" y1="3" x2="100.19" y2="93.76"/><line class="cls-3" x1="100.19" y1="3" x2="100.19" y2="23.4"/><line class="cls-4" x1="100.19" y1="35.58" x2="100.19" y2="67.27"/><line class="cls-3" x1="100.19" y1="73.36" x2="100.19" y2="93.76"/></g></g></svg>