<?xml version="1.0" encoding="utf-8"?>
<!-- Generator: Adobe Illustrator 23.0.4, SVG Export Plug-In . SVG Version: 6.00 Build 0)  -->
<svg version="1.1" id="Capa_1" xmlns="http://www.w3.org/2000/svg" xmlns:xlink="http://www.w3.org/1999/xlink" x="0px" y="0px"
	 viewBox="0 0 147.5 96.8" style="enable-background:new 0 0 147.5 96.8;" xml:space="preserve">
<style type="text/css">
	.st0{fill:#137F55;}
</style>
<title>Recurso 5</title>
<g>
	<g id="Capa_1-2_1_">
		<path class="st0" d="M51.7,57l-36.8-0.1c-2.2,0-4-1.8-4-4c0,0,0,0,0,0v-7.5c7.2-1.5,12.3-7.8,12.4-15.1c0-7.3-5.1-13.6-12.3-15.2
			V7.6c0-2.2,1.8-4,4-4.1c0,0,0.1,0,0.1,0l53.1,0.1v11.2c0,1,0.8,1.9,1.9,1.9c1,0,1.9-0.8,1.9-1.9V3.6h20.3c2.2,0,4,1.8,4,4.1
			c0,0,0,0.1,0,0.1v7.5c-8.4,1.7-13.8,9.8-12.1,18.2c0,0,0,0,0,0c0,0.4,0.2,0.7,0.3,1.1H88c-2.3-6.4,1-13.5,7.4-15.8
			c1.3-0.5,2.6-0.7,3.9-0.7V7.8c0.1-4-3.1-7.2-7.1-7.3c0,0,0,0-0.1,0L15.1,0.3c-4,0-7.2,3.2-7.2,7.2c0,0,0,0,0,0v10.3
			c6.8,0,12.3,5.6,12.3,12.4c0,0,0,0,0,0c0,6.8-5.6,12.3-12.4,12.3c0,0,0,0-0.1,0v10.3c0,4,3.2,7.2,7.2,7.2c0,0,0,0,0,0l41.2,0.1
			C54.9,58.7,53.4,57.6,51.7,57"/>
		<path class="st0" d="M71.8,34.6V22.4c0-1-0.8-1.9-1.9-1.9c-1,0-1.9,0.8-1.9,1.9v12.1L71.8,34.6z"/>
		<path class="st0" d="M110.3,76.5c-1,0-1.9-0.8-1.9-1.9V58.7c0-1,0.8-1.9,1.9-1.9c1,0,1.9,0.8,1.9,1.9v15.9
			C112.2,75.6,111.4,76.5,110.3,76.5"/>
		<path class="st0" d="M139.8,54.5V44.1c0-4-3.2-7.2-7.2-7.2c0,0,0,0,0,0l-77.2-0.2c-4,0-7.2,3.2-7.2,7.1c0,0,0,0,0,0v10.3
			c6.8,0,12.3,5.5,12.3,12.3s-5.5,12.3-12.3,12.3l0,0v10.3c0,4,3.2,7.2,7.1,7.2c0,0,0,0,0,0l77.2,0.2c4,0,7.2-3.2,7.2-7.2
			c0,0,0,0,0,0V79c-6.8-0.3-12.1-6-11.8-12.8C128.2,59.8,133.4,54.6,139.8,54.5 M124.6,69.8c1.2,6.1,5.9,10.8,12,12v7.5
			c0,2.2-1.8,4-4,4h-20.3V82.1c0-1-0.8-1.9-1.9-1.9c-1,0-1.9,0.8-1.9,1.9v11.2l-53.1-0.1c-2.2,0-4-1.8-4-4v-7.5
			c8.4-1.7,13.7-9.9,12-18.3c-1.2-6-5.9-10.7-11.9-12v-7.5c0-2.2,1.8-4,4-4l53.1,0.1v11.2c0,1,0.8,1.9,1.9,1.9c1,0,1.9-0.8,1.9-1.9
			V40.1h20.4c2.2,0,4,1.8,4,4c0,0,0,0,0,0v7.5C128.3,53.3,122.9,61.5,124.6,69.8"/>
		<path class="st0" d="M128.4,24.7c-0.6,0-1.1-0.5-1.1-1.1c0-8.4-6.8-15.3-15.2-15.3c-0.6-0.1-1-0.6-1-1.3c0.1-0.5,0.5-0.9,1-1
			c9.7,0,17.5,7.9,17.5,17.6C129.5,24.2,129,24.7,128.4,24.7"/>
		<path class="st0" d="M128.2,25.3c-0.6-0.1-1.1-0.6-1-1.2c0-0.3,0.2-0.6,0.4-0.8l3.6-2.8c0.5-0.4,1.2-0.3,1.6,0.2
			c0.4,0.5,0.3,1.2-0.2,1.6l-3.7,2.8C128.7,25.2,128.5,25.3,128.2,25.3"/>
		<path class="st0" d="M128.2,25.3c-0.2,0-0.4-0.1-0.6-0.2l-3.7-2.9c-0.5-0.4-0.6-1.1-0.2-1.6c0,0,0,0,0,0c0.4-0.5,1.1-0.6,1.5-0.2
			c0,0,0,0,0,0l3.6,2.8c0.5,0.4,0.6,1.1,0.2,1.6C128.8,25.2,128.5,25.3,128.2,25.3"/>
		<path class="st0" d="M32.1,87.4c-9.7,0-17.5-7.9-17.5-17.6c0-0.6,0.5-1.1,1.1-1.1c0,0,0,0,0,0c0.6,0,1.1,0.5,1.1,1.1c0,0,0,0,0,0
			c0,8.4,6.8,15.3,15.2,15.3c0.6,0,1.1,0.5,1.1,1.1C33.2,87,32.7,87.4,32.1,87.4C32.1,87.4,32.1,87.4,32.1,87.4"/>
		<path class="st0" d="M29.8,90.9c-0.3,0-0.5-0.1-0.7-0.2c-0.5-0.4-0.6-1.1-0.2-1.6c0,0,0,0,0,0l2.8-3.6c0.3-0.5,1-0.7,1.6-0.3
			c0.5,0.3,0.7,1,0.3,1.6c0,0-0.1,0.1-0.1,0.1l-2.9,3.6C30.5,90.7,30.2,90.9,29.8,90.9"/>
		<path class="st0" d="M32.7,87.3c-0.3,0-0.7-0.2-0.9-0.4L29,83.3c-0.4-0.5-0.3-1.2,0.2-1.6c0.5-0.4,1.2-0.3,1.6,0.2l2.8,3.6
			c0.4,0.5,0.3,1.2-0.2,1.6C33.2,87.2,32.9,87.3,32.7,87.3"/>
	</g>
</g>
</svg>
